<?xml version="1.0" encoding="UTF-8"?>
<svg id="Layer_1" data-name="Layer 1" xmlns="http://www.w3.org/2000/svg" xmlns:xlink="http://www.w3.org/1999/xlink" viewBox="0 0 120 120">
  <defs>
    <style>
      .cls-1 {
        fill: url(#linear-gradient-2);
      }

      .cls-2 {
        fill: url(#linear-gradient-3);
      }

      .cls-3 {
        fill: url(#linear-gradient);
      }

      .cls-4 {
        fill: url(#linear-gradient-4);
      }
    </style>
    <linearGradient id="linear-gradient" x1="40.58" y1="28.17" x2="80.4" y2="28.17" gradientUnits="userSpaceOnUse">
      <stop offset="0" stop-color="#c3495e"/>
      <stop offset=".32" stop-color="#fe696f"/>
      <stop offset=".72" stop-color="#fdbab2"/>
      <stop offset="1" stop-color="#ffd5d7"/>
    </linearGradient>
    <linearGradient id="linear-gradient-2" y1="91.83" y2="91.83" xlink:href="#linear-gradient"/>
    <linearGradient id="linear-gradient-3" x1="10.5" y1="59.21" x2="50.32" y2="59.21" xlink:href="#linear-gradient"/>
    <linearGradient id="linear-gradient-4" x1="70.95" y1="59.21" x2="110.77" y2="59.21" xlink:href="#linear-gradient"/>
  </defs>
  <path class="cls-3" d="m52.24,0l28.17,28.17-28.17,28.17c-15.55-15.55-15.55-40.78,0-56.33Z"/>
  <path class="cls-1" d="m52.24,63.67l28.17,28.17-28.17,28.17c-15.55-15.55-15.55-40.78,0-56.33Z"/>
  <path class="cls-2" d="m22.16,31.04l28.17,28.17-28.17,28.17c-15.55-15.55-15.55-40.78,0-56.33Z"/>
  <path class="cls-4" d="m82.61,31.04c-15.54,15.56-15.54,40.78,0,56.34l28.16-28.18-28.16-28.16Zm10.43,29.06c-2.08,0-3.76-1.68-3.76-3.76s1.68-3.76,3.76-3.76,3.76,1.68,3.76,3.76-1.68,3.76-3.76,3.76Z"/>
</svg>